<svg id="c" xmlns="http://www.w3.org/2000/svg" width="105.32" height="105.32" viewBox="0 0 105.32 105.32">
  <path id="Path_30" data-name="Path 30" d="M105.32,52.66a52.415,52.415,0,0,1-6.657,25.647v0q-1.2,2.15-2.594,4.172a52.691,52.691,0,0,1-86.688.187q-1.467-2.105-2.725-4.359v0A52.664,52.664,0,1,1,105.32,52.66Z" fill="#2d3a3e"/>
  <path id="Path_31" data-name="Path 31" d="M124.293,60.886v40.129q0,.38-.026.761a52.759,52.759,0,0,1-7.145,9.889l-27.551,15.9a53.078,53.078,0,0,1-22.618,0L44.311,114.5l-4.905-2.833a52.683,52.683,0,0,1-7.147-9.891q-.026-.38-.026-.761V60.886a11.286,11.286,0,0,1,5.636-9.765L72.627,31.056a11.258,11.258,0,0,1,11.271,0l27.8,16.052,6.955,4.013A11.286,11.286,0,0,1,124.293,60.886Z" transform="translate(-25.603 -23.467)" fill="#004284"/>
  <path id="Path_32" data-name="Path 32" d="M122.869,55.4l-87.882,50.73q-1.467-2.105-2.725-4.359v0c-.017-.252-.026-.505-.026-.759V60.886a11.281,11.281,0,0,1,5.636-9.765L72.629,31.056a11.255,11.255,0,0,1,11.269,0l27.8,16.052,6.955,4.013A11.3,11.3,0,0,1,122.869,55.4Z" transform="translate(-25.605 -23.467)" fill="#6399d4"/>
  <path id="Path_33" data-name="Path 33" d="M302.909,160.74V200.87c0,.254-.009.507-.026.759v0q-1.2,2.15-2.594,4.172l-43.181-24.927,44.376-25.617A11.252,11.252,0,0,1,302.909,160.74Z" transform="translate(-204.22 -123.322)" fill="#00579e"/>
  <g id="Group_13" data-name="Group 13" transform="translate(21.467 26.538)">
    <path id="Path_34" data-name="Path 34" d="M149.06,167.69a15.436,15.436,0,1,1-.154-15.241l13.649-7.88a31.2,31.2,0,1,0,.154,31Z" transform="translate(-104.36 -129.01)" fill="#f2f2f2"/>
    <path id="Path_35" data-name="Path 35" d="M364.234,256.062h-3.547v-3.547h-3.439v3.547H353.7V259.5h3.547v3.547h3.439V259.5h3.547Z" transform="translate(-302.411 -227.11)" fill="#f2f2f2"/>
    <path id="Path_36" data-name="Path 36" d="M426.928,256.062h-3.547v-3.547h-3.439v3.547H416.4V259.5h3.547v3.547h3.439V259.5h3.547Z" transform="translate(-352.209 -227.11)" fill="#f2f2f2"/>
  </g>
</svg>
