<svg xmlns="http://www.w3.org/2000/svg" width="172.628" height="172.628" viewBox="0 0 172.628 172.628">
  <g id="confetti" transform="translate(-5 15.001)">
    <g id="Group_12" data-name="Group 12" transform="translate(5 -15.001)">
      <g id="Group_11" data-name="Group 11" transform="translate(0 0)">
        <path id="Path_16" data-name="Path 16" d="M116.613,95.03a90.286,90.286,0,0,1,19.2-6.51,3.372,3.372,0,1,0-1.4-6.6,98.012,98.012,0,0,0-22.161,7.709c-4.148-4.947-8.9-10.12-14.02-15.243C92.794,68.945,87.293,63.921,82.067,59.6A76.178,76.178,0,0,0,93.072,40.469c4.354-10.924,6.562-23.406,6.562-37.1a3.372,3.372,0,0,0-6.743,0c0,21.1-5.409,38.557-16.092,52.031-2.016-1.538-3.97-2.951-5.837-4.21-9.993-6.74-15.944-8.319-19.271-5.112-.024.022-.048.043-.071.066l-.01.009-.006.006a5.547,5.547,0,0,0-1.577,3.119L.262,167.952a3.372,3.372,0,0,0,4.413,4.413l.009,0L123.347,122.6a5.539,5.539,0,0,0,2.889-1.369c.059-.049.114-.1.169-.153.022-.021.045-.039.066-.06l.009-.01c.023-.023.045-.048.067-.072,3.207-3.327,1.627-9.278-5.112-19.27C120.01,99.554,118.391,97.33,116.613,95.03Zm-89.87,53.577a22.684,22.684,0,0,1-3.021,8.458L9.668,162.959,23.94,128.926C26.732,135.926,27.7,142.632,26.742,148.608ZM47.49,137.2c-1.359,7.749-4.965,11.485-5.99,12.411l-8.885,3.726c1.975-7.031,2.494-18.192-5.139-32.843L37.58,96.4C48.064,116.276,48.85,129.445,47.49,137.2Zm12.027,4.855L52.25,145.1a34.04,34.04,0,0,0,1.745-6c2.7-13.774-1.707-30.805-13.087-50.638l3.648-8.7a57.238,57.238,0,0,1,7.51,11.493,3.372,3.372,0,1,0,6.2-2.662c-1.977-4.6-6.99-11.758-10.825-15.7L53.011,59.6c.976,1.79,2.186,3.752,3.636,5.9q1.5,2.221,3.269,4.594c11.533,17.5,11.272,35.414,9.018,47.366C66.537,130.18,61.4,139.488,59.517,142.054ZM85.5,131.16,69.49,137.873a84.987,84.987,0,0,0,6.07-19.155,73.312,73.312,0,0,0-.643-31q2.4,2.531,4.926,5.064c5.043,5.043,10.134,9.722,15.011,13.824C94.37,122.526,87.069,129.78,85.5,131.16Zm11.622-4.874a45.545,45.545,0,0,0,4.109-14.557c2.035,1.554,4.009,2.981,5.892,4.251,2.151,1.451,4.113,2.66,5.9,3.636Zm11.859-17.22A199.781,199.781,0,0,1,84.612,88.015,199.748,199.748,0,0,1,63.56,63.65c-5.022-7.088-6.375-10.708-6.732-12.275,1.568.357,5.187,1.71,12.275,6.732,1.051.745,2.132,1.541,3.232,2.375-.236.243-.47.489-.71.73a3.372,3.372,0,1,0,4.768,4.769q.635-.635,1.253-1.286c5.114,4.228,10.522,9.164,15.823,14.464,4.558,4.558,8.844,9.195,12.645,13.657q-.913.507-1.826,1.033a3.372,3.372,0,1,0,3.372,5.84c.936-.541,1.873-1.06,2.809-1.566,1.465,1.86,2.824,3.669,4.052,5.4,5.022,7.088,6.375,10.708,6.732,12.275C119.684,115.442,116.065,114.089,108.977,109.067Z" transform="translate(0 0.001)" fill="#00c2ff"/>
        <path id="Path_17" data-name="Path 17" d="M168.209,284.623a3.384,3.384,0,1,0,.115.29C168.293,284.821,168.249,284.711,168.209,284.623Z" transform="translate(-107.222 -187.339)" fill="#00c2ff"/>
        <path id="Path_18" data-name="Path 18" d="M371.492,118.446a3.372,3.372,0,0,0,4.768,0c7.533-7.533,19.738-10.986,28.649-11.7a3.372,3.372,0,1,0-.543-6.721c-10.106.816-24.049,4.832-32.875,13.658A3.372,3.372,0,0,0,371.492,118.446Z" transform="translate(-245.583 -66.289)" fill="#00c2ff"/>
        <path id="Path_19" data-name="Path 19" d="M495.786,101.616l-.291-.076a3.372,3.372,0,0,0-1.629,6.544l.172.045a3.372,3.372,0,1,0,1.748-6.513Z" transform="translate(-325.657 -67.238)" fill="#00c2ff"/>
        <path id="Path_20" data-name="Path 20" d="M66.876,57.108h3.372v3.372a3.372,3.372,0,0,0,6.743,0V57.108h3.372a3.372,3.372,0,1,0,0-6.743H76.991V46.993a3.372,3.372,0,1,0-6.743,0v3.372H66.876a3.372,3.372,0,1,0,0,6.743Z" transform="translate(-42.093 -28.913)" fill="#00c2ff"/>
        <path id="Path_21" data-name="Path 21" d="M300.874,154.106h3.372v3.371a3.372,3.372,0,1,0,6.743,0v-3.371h3.371a3.372,3.372,0,0,0,0-6.743h-3.371v-3.372a3.372,3.372,0,1,0-6.743,0v3.372h-3.372a3.372,3.372,0,0,0,0,6.743Z" transform="translate(-197.195 -93.207)" fill="#00c2ff"/>
        <path id="Path_22" data-name="Path 22" d="M413.359,404.361h-3.372V400.99a3.372,3.372,0,0,0-6.743,0v3.372h-3.372a3.372,3.372,0,0,0,0,6.743h3.372v3.372a3.372,3.372,0,0,0,6.743,0V411.1h3.372a3.372,3.372,0,0,0,0-6.743Z" transform="translate(-262.815 -263.555)" fill="#00c2ff"/>
        <path id="Path_23" data-name="Path 23" d="M370.084,20.231a10.115,10.115,0,1,0-10.115-10.115A10.126,10.126,0,0,0,370.084,20.231Zm0-13.487a3.372,3.372,0,1,1-3.372,3.372A3.375,3.375,0,0,1,370.084,6.744Z" transform="translate(-238.6 0)" fill="#00c2ff"/>
        <path id="Path_24" data-name="Path 24" d="M432.616,173.619a10.115,10.115,0,1,0,10.115,10.115A10.126,10.126,0,0,0,432.616,173.619Zm0,13.487a3.372,3.372,0,1,1,3.372-3.372A3.375,3.375,0,0,1,432.616,187.106Z" transform="translate(-280.049 -115.081)" fill="#00c2ff"/>
        <path id="Path_25" data-name="Path 25" d="M178.618,55.85A10.115,10.115,0,1,0,168.5,45.735,10.126,10.126,0,0,0,178.618,55.85Zm0-13.487a3.372,3.372,0,1,1-3.372,3.372A3.375,3.375,0,0,1,178.618,42.363Z" transform="translate(-111.69 -23.61)" fill="#00c2ff"/>
        <path id="Path_26" data-name="Path 26" d="M435.933,287.43a3.372,3.372,0,1,0-3.372,3.372A3.378,3.378,0,0,0,435.933,287.43Z" transform="translate(-284.482 -188.283)" fill="#00c2ff"/>
        <path id="Path_27" data-name="Path 27" d="M328.561,81.8a3.372,3.372,0,1,0-3.372-3.372A3.378,3.378,0,0,0,328.561,81.8Z" transform="translate(-215.547 -49.752)" fill="#00c2ff"/>
        <path id="Path_28" data-name="Path 28" d="M462.56,359.057a3.372,3.372,0,1,0,3.372,3.372A3.379,3.379,0,0,0,462.56,359.057Z" transform="translate(-304.366 -237.995)" fill="#00c2ff"/>
        <path id="Path_29" data-name="Path 29" d="M132.564,16.744a3.372,3.372,0,1,0-3.372-3.372A3.378,3.378,0,0,0,132.564,16.744Z" transform="translate(-85.633 -6.629)" fill="#00c2ff"/>
      </g>
    </g>
  </g>
</svg>
