<svg xmlns="http://www.w3.org/2000/svg" width="149.94" height="172.156" viewBox="0 0 149.94 172.156">
  <g id="creativity" transform="translate(-0.004 -0.001)">
    <path id="Path_6" data-name="Path 6" d="M110.571,60.372a13.873,13.873,0,0,0-9.013,12.956,13.718,13.718,0,0,0,1.592,6.318,11.058,11.058,0,0,0,0,20.685,13.717,13.717,0,0,0-1.592,6.317,13.87,13.87,0,0,0,9.013,12.956,10.954,10.954,0,0,0-.683,3.7,11.031,11.031,0,0,0,15.022,10.36,11.079,11.079,0,0,0,21.075-4.806V51.115a11.079,11.079,0,0,0-21.075-4.806,11,11,0,0,0-14.339,14.064Zm10.423-9.257a5.559,5.559,0,0,1,5.553,5.553H132.1a11,11,0,0,0-2.56-7.005,5.54,5.54,0,0,1,10.89,1.452v77.747a5.54,5.54,0,0,1-10.89,1.452,11,11,0,0,0,2.56-7.005h-5.553a5.553,5.553,0,1,1-5.553-5.553V112.2a11,11,0,0,0-7.08,2.622,8.324,8.324,0,1,1,9.857-8.175h5.553a13.9,13.9,0,0,0-13.883-13.883,13.736,13.736,0,0,0-8.33,2.85v-.073a5.553,5.553,0,0,1,0-11.107v-.072a13.735,13.735,0,0,0,8.33,2.849,13.9,13.9,0,0,0,13.883-13.883h-5.553a8.33,8.33,0,1,1-9.857-8.174,11,11,0,0,0,7.08,2.621V62.221a5.553,5.553,0,0,1,0-11.107Zm0,0" transform="translate(-62.68 -26.121)" fill="#00c2ff"/>
    <path id="Path_7" data-name="Path 7" d="M280.994,45.561a11.046,11.046,0,0,0-3.914.747A11.08,11.08,0,0,0,256,51.115v77.747a11.08,11.08,0,0,0,21.076,4.806,11.03,11.03,0,0,0,15.021-10.36,10.921,10.921,0,0,0-.683-3.7,13.87,13.87,0,0,0,9.013-12.956,13.716,13.716,0,0,0-1.59-6.317,11.059,11.059,0,0,0,0-20.685,13.717,13.717,0,0,0,1.59-6.318,13.873,13.873,0,0,0-9.013-12.956,10.915,10.915,0,0,0,.683-3.7,11.119,11.119,0,0,0-11.107-11.107Zm13.883,27.767a8.33,8.33,0,1,1-16.66,0h-5.553a13.9,13.9,0,0,0,13.883,13.883,13.735,13.735,0,0,0,8.33-2.849v.072a5.553,5.553,0,1,1,0,11.107v.073a13.736,13.736,0,0,0-8.33-2.85,13.9,13.9,0,0,0-13.883,13.883h5.553a8.33,8.33,0,1,1,9.858,8.175,11.008,11.008,0,0,0-7.081-2.622v5.553a5.553,5.553,0,1,1-5.553,5.553h-5.553a11,11,0,0,0,2.56,7.005,5.54,5.54,0,0,1-10.89-1.452V51.115a5.54,5.54,0,0,1,10.89-1.452,11,11,0,0,0-2.56,7.005h5.553a5.553,5.553,0,1,1,5.553,5.553v5.553a11.006,11.006,0,0,0,7.081-2.621,8.331,8.331,0,0,1,6.8,8.174Zm0,0" transform="translate(-167.146 -26.121)" fill="#00c2ff"/>
    <path id="Path_8" data-name="Path 8" d="M171.6,17.32A63.334,63.334,0,0,0,123.792.132l.344,5.541a58.3,58.3,0,0,1,35.912,106.808A34.327,34.327,0,0,0,147.5,127.731H108.123a34.891,34.891,0,0,0-12.609-15.365A58.05,58.05,0,0,1,69.591,62.007l-5.551-.172A63.563,63.563,0,0,0,92.43,116.98a29.257,29.257,0,0,1,9.6,10.75H94.55v5.553h9.7a32.043,32.043,0,0,1,1.188,5.553H100.1v5.553h5.553v8.33a2.776,2.776,0,0,0,2.777,2.777h2.777a16.66,16.66,0,1,0,33.32,0h2.777a2.775,2.775,0,0,0,2.777-2.777v-8.33h5.553v-5.553h-5.358a30.954,30.954,0,0,1,1.116-5.553h9.8v-5.553h-7.6a28.631,28.631,0,0,1,9.533-10.617A63.853,63.853,0,0,0,171.6,17.32ZM127.87,166.6A11.118,11.118,0,0,1,116.764,155.5h22.213A11.118,11.118,0,0,1,127.87,166.6Zm16.66-16.66H111.21v-5.553h33.32Zm.2-11.107h-33.74a37.813,37.813,0,0,0-.941-5.553h35.545a36.89,36.89,0,0,0-.864,5.553Zm0,0" transform="translate(-41.79 0)" fill="#00c2ff"/>
    <path id="Path_9" data-name="Path 9" d="M50.781,19.445A11.119,11.119,0,0,1,61.887,30.551a2.777,2.777,0,0,0,5.553,0A11.119,11.119,0,0,1,78.547,19.445a2.777,2.777,0,1,0,0-5.553A11.118,11.118,0,0,1,67.441,2.784a2.777,2.777,0,1,0-5.553,0A11.118,11.118,0,0,1,50.781,13.891a2.777,2.777,0,1,0,0,5.553Zm13.883-7.461a16.8,16.8,0,0,0,4.684,4.684,16.822,16.822,0,0,0-4.684,4.684,16.8,16.8,0,0,0-4.684-4.684A16.787,16.787,0,0,0,64.664,11.984Zm0,0" transform="translate(-31.34 -0.004)" fill="#00c2ff"/>
    <path id="Path_10" data-name="Path 10" d="M30.547,99.445a2.777,2.777,0,1,0,0-5.553A11.118,11.118,0,0,1,19.441,82.785a2.777,2.777,0,1,0-5.553,0A11.118,11.118,0,0,1,2.781,93.891a2.777,2.777,0,1,0,0,5.553,11.119,11.119,0,0,1,11.107,11.107,2.777,2.777,0,1,0,5.553,0A11.119,11.119,0,0,1,30.547,99.445Zm-13.883,1.908a16.8,16.8,0,0,0-4.684-4.684,16.823,16.823,0,0,0,4.684-4.684,16.841,16.841,0,0,0,4.684,4.684A16.823,16.823,0,0,0,16.664,101.352Zm0,0" transform="translate(0 -52.238)" fill="#00c2ff"/>
  </g>
</svg>
