<svg xmlns="http://www.w3.org/2000/svg" width="279.54" height="279.54" viewBox="0 0 279.54 279.54">
  <g id="gear" transform="matrix(0.891, -0.454, 0.454, 0.891, 0, 94.356)">
    <path id="Path_2" data-name="Path 2" d="M129.5,207.837H78.337V191.3a90.363,90.363,0,0,1-18.1-7.524l-11.71,11.71L12.35,159.31,24.058,147.6a90.306,90.306,0,0,1-7.522-18.1H0V78.337H16.534a90.4,90.4,0,0,1,7.524-18.1L12.35,48.526,48.527,12.347l11.71,11.71a90.217,90.217,0,0,1,18.1-7.522V0H129.5V16.534a90.364,90.364,0,0,1,18.1,7.524l11.71-11.71L195.49,48.524l-11.71,11.71a90.327,90.327,0,0,1,7.524,18.1h16.534V129.5H191.3a90.35,90.35,0,0,1-7.524,18.1l11.71,11.71-36.177,36.177L147.6,183.779a90.363,90.363,0,0,1-18.1,7.522ZM90.515,195.659h26.807V181.794l4.692-1.105a78.274,78.274,0,0,0,23.362-9.709l4.1-2.545,9.833,9.833,18.955-18.955-9.833-9.833,2.547-4.1a78.247,78.247,0,0,0,9.707-23.362l1.107-4.694h13.865V90.516H181.794l-1.105-4.694a78.291,78.291,0,0,0-9.709-23.362l-2.545-4.1,9.833-9.833L159.313,29.571,149.478,39.4l-4.1-2.545a78.258,78.258,0,0,0-23.362-9.709l-4.692-1.105V12.178H90.515V26.043l-4.692,1.105a78.257,78.257,0,0,0-23.362,9.709l-4.1,2.545-9.834-9.833L29.57,48.524,39.4,58.357l-2.545,4.1a78.292,78.292,0,0,0-9.709,23.362l-1.105,4.694H12.178V117.32H26.043l1.105,4.694a78.291,78.291,0,0,0,9.709,23.362l2.545,4.1L29.57,159.31l18.955,18.955,9.834-9.833,4.1,2.545a78.258,78.258,0,0,0,23.362,9.709l4.692,1.105Zm0,0" fill="#fff"/>
    <path id="Path_3" data-name="Path 3" d="M145.733,239.132l-28.639-36.394,28.639-36.394,9.57,7.53-22.712,28.864L155.3,231.6Zm0,0" transform="translate(-69.562 -98.82)" fill="#fff"/>
    <path id="Path_4" data-name="Path 4" d="M310.35,239.132l-9.57-7.53,22.711-28.864-22.711-28.864,9.57-7.53,28.639,36.394Zm0,0" transform="translate(-178.684 -98.82)" fill="#fff"/>
    <path id="Path_5" data-name="Path 5" d="M241,165.945h12.178v73.112H241Zm0,0" transform="translate(-143.17 -98.583)" fill="#fff"/>
  </g>
</svg>
