<svg xmlns="http://www.w3.org/2000/svg" width="53.557" height="53.299" viewBox="0 0 53.557 53.299">
  <path id="github" d="M26.779,0A26.9,26.9,0,0,0,0,26.754a26.78,26.78,0,0,0,53.557,0A26.9,26.9,0,0,0,26.779,0Zm4.707,49.708a23.884,23.884,0,0,1-9.414,0V42.4a4.427,4.427,0,0,1,1.1-3.217,34.151,34.151,0,0,0,1.945-2.842L22.7,35.967c-6.214-.906-8.661-4.123-9.634-6.621a10.58,10.58,0,0,1,1.663-10.181,1.876,1.876,0,0,0,.377-1.812,9.157,9.157,0,0,1-.094-4.591c1.664.237,3.375,1.423,4.8,2.28a2.264,2.264,0,0,0,1.318.312,22.908,22.908,0,0,1,5.68-.812,19.315,19.315,0,0,1,5.241.749,2.274,2.274,0,0,0,1.694-.25c1.491-.9,3.144-2.05,4.8-2.28a9.161,9.161,0,0,1-.094,4.591,1.874,1.874,0,0,0,.377,1.812,10.581,10.581,0,0,1,1.663,10.181c-.973,2.5-3.42,5.715-9.634,6.621l-2.416.375a33.4,33.4,0,0,0,1.946,2.842,4.429,4.429,0,0,1,1.1,3.217Zm3.138-.906V42.4a7.46,7.46,0,0,0-.879-3.842c4.77-1.28,8.159-4.091,9.666-8.12a13.676,13.676,0,0,0-1.789-12.8c.471-2.092.471-5.434-.659-7a2.453,2.453,0,0,0-2.071-1.062H38.86c-2.433.131-4.348,1.35-6.4,2.592a22.233,22.233,0,0,0-5.712-.749,21.776,21.776,0,0,0-5.617.749c-2.162-1.3-4.058-2.464-6.559-2.592a2.41,2.41,0,0,0-1.977,1.062c-1.129,1.561-1.129,4.9-.659,7a13.688,13.688,0,0,0-1.789,12.8c1.506,4.029,4.9,6.84,9.666,8.12a6.767,6.767,0,0,0-.819,2.736,4.2,4.2,0,0,1-2.576.211A3.468,3.468,0,0,1,14.4,39.791c-1.246-2.084-3.369-3.785-5.786-3.563l.276,3.111c1.119-.1,2.233,1.076,2.812,2.048A6.582,6.582,0,0,0,15.528,44.5a6.672,6.672,0,0,0,3.4.091V48.8a23.481,23.481,0,0,1-15.8-22.048,23.64,23.64,0,0,1,47.281,0A23.481,23.481,0,0,1,34.624,48.8Zm0,0" fill="#fff"/>
</svg>
