<svg id="html-5" xmlns="http://www.w3.org/2000/svg" width="105.32" height="105.32" viewBox="0 0 105.32 105.32">
  <path id="Path_44" data-name="Path 44" d="M105.32,52.66A52.66,52.66,0,1,1,52.66,0,52.573,52.573,0,0,1,105.32,52.66Z" fill="#f2f2f2"/>
  <path id="Path_45" data-name="Path 45" d="M147.4,119.474l-6.012,69.718a52.667,52.667,0,0,1-64.254.185l-6.027-69.9Z" transform="translate(-56.478 -94.898)" fill="#e64c18"/>
  <path id="Path_46" data-name="Path 46" d="M256.546,151.249v72.6l25.078-7.08,5.594-65.517Z" transform="translate(-203.773 -120.136)" fill="#f36518"/>
  <path id="Path_47" data-name="Path 47" d="M140.9,195.528l2.459,29.12h32.687l-1.069,12.029-10.288,2.786-10.715-3-.269-7.5h-9.981l1.249,14.786,19.715,5.572,19.715-5.572,2.443-28.931H152.428l-.854-9.429h0l36.091-.189.816-9.67Z" transform="translate(-111.919 -155.307)" fill="#fff"/>
  <path id="Path_48" data-name="Path 48" d="M115.53,16.8v5h-4.78v-5H106.3V31.137h4.447V26.468h4.78v4.669h4.447V16.8Z" transform="translate(-84.436 -13.341)"/>
  <path id="Path_49" data-name="Path 49" d="M196.719,16.8H183.045v5h4.447v9.45h4.781V21.8h4.447Z" transform="translate(-145.392 -13.341)"/>
  <path id="Path_50" data-name="Path 50" d="M354.825,27.12V17.337h-4.781V31.678h11.673V27.12Z" transform="translate(-278.039 -13.771)"/>
  <path id="Path_51" data-name="Path 51" d="M270.7,17.337l-3.335,5.114-3.335-5.114h-4.78V31.678h4.78V24.563l3.335,5.114,3.335-5.114v7.115h4.781V17.337Z" transform="translate(-205.92 -13.771)"/>
</svg>
