<svg id="javascript" xmlns="http://www.w3.org/2000/svg" width="105.32" height="105.32" viewBox="0 0 105.32 105.32">
  <path id="Path_65" data-name="Path 65" d="M105.32,52.66a52.394,52.394,0,1,1-3.7-19.426A52.5,52.5,0,0,1,105.32,52.66Z" fill="#e4ba42"/>
  <g id="Group_16" data-name="Group 16" transform="translate(15.216 9.3)">
    <path id="Path_66" data-name="Path 66" d="M316.325,190.94c-1.466-4.251-7.475-4.251-8.648-.733s2.785,5.57,8.941,7.622,9.967,7.475,9.234,12.312-2.785,11.14-14.951,11.14c-7.6,0-11.829-4.752-13.929-8.316l6.893-4.142s2.345,4.984,6.742,4.984,6.156-1.466,6.156-4.837c0-4.1-14.218-5.57-16.416-12.605s.733-17,10.993-16.27a15.906,15.906,0,0,1,11.823,5.9Z" transform="translate(-251.1 -152.318)" fill="#f2f2f2"/>
    <path id="Path_67" data-name="Path 67" d="M170.627,183.8v28.142c0,3.371-2.931,5.13-5.863,4.544s-4.251-4.1-4.251-4.1l-6.742,4.544s1.466,6.742,10.7,7.329,14.511-4.984,14.511-9.674V183.8Z" transform="translate(-137.355 -155.296)" fill="#f2f2f2"/>
    <path id="Path_68" data-name="Path 68" d="M73.968,45.213V125.6a52.687,52.687,0,0,0,7.1,6.021h60.682a52.8,52.8,0,0,0,5.767-4.716H78.684V49.929h76.972v67.214A52.375,52.375,0,0,0,160.374,108V45.213Z" transform="translate(-73.968 -45.213)" fill="#f2f2f2"/>
  </g>
  <ellipse id="Ellipse_1" data-name="Ellipse 1" cx="8.355" cy="8.355" rx="8.355" ry="8.355" transform="translate(9.717 61.408)" fill="#3f4a43"/>
</svg>
