<svg id="java" xmlns="http://www.w3.org/2000/svg" width="105.32" height="105.32" viewBox="0 0 105.32 105.32">
  <path id="Path_52" data-name="Path 52" d="M105.32,52.66A52.633,52.633,0,0,1,79.27,98.111c-.419.247-.845.488-1.272.722a52.767,52.767,0,0,1-45.4,2.528q-1.489-.612-2.932-1.315A52.665,52.665,0,1,1,105.32,52.66Z" fill="#f2f2f2"/>
  <g id="Group_15" data-name="Group 15" transform="translate(25.595 0.947)">
    <path id="Path_53" data-name="Path 53" d="M225.523,4.605c1.561,5.959,1.135,8.939-7.094,15.749s-9.506,6.952-9.506,11.209,6.314,11,9.364,12.911a23.806,23.806,0,0,0-1.632-3.05c-1.135-1.844-4.611-4.966-3.973-9.719s10.677-10.819,13.266-15.394S227.935,7.868,225.523,4.605Z" transform="translate(-191.542 -4.605)" fill="#de0a17"/>
    <path id="Path_54" data-name="Path 54" d="M272.407,77.717c-7.094,2.341-15.891,6.03-15.891,13.2s4.54,5.817,4.54,9.648-2.483,4.966-2.483,4.966,6.527-2.483,6.243-7.449-4.185-4.256-4.185-8.868C260.63,83.373,272.407,77.717,272.407,77.717Z" transform="translate(-229.345 -62.678)" fill="#de0a17"/>
    <path id="Path_55" data-name="Path 55" d="M165.388,201.181c-7.094,0-11.989,2.625-11.989,4.115s8.726,2.909,18.161,2.27,14.4-1.419,18.161-3.689a63.088,63.088,0,0,1-11.776,1.561c-5.108,0-19.705.913-19.367-1.277s8.8-2.979,8.8-2.979Z" transform="translate(-147.439 -160.745)" fill="#de0a17"/>
    <path id="Path_56" data-name="Path 56" d="M184.6,241.531c-3.76,1.348-4.753,2.7-2.554,4.115s6.527,1.844,12.486,1.844,14.259-2.057,14.259-2.057l-2.7-2.128s-3.689,1.348-10.712,1.348S181.3,244.83,184.6,241.531Z" transform="translate(-169.279 -192.794)" fill="#de0a17"/>
    <path id="Path_57" data-name="Path 57" d="M194.6,280.5c-3.689,1.277-4.469,2.979-1.206,4.54s9.506,1.844,14.117,1.206a46.672,46.672,0,0,0,8.513-2.057,13.072,13.072,0,0,1-3.689-2.128,59.038,59.038,0,0,1-10.5,1.135C196.726,283.2,192.612,282.488,194.6,280.5Z" transform="translate(-177.572 -223.749)" fill="#de0a17"/>
    <path id="Path_58" data-name="Path 58" d="M331.7,198.376s1.773-2.412,6.243-.568,4.327,6.81.284,9.79a25.616,25.616,0,0,1-8.939,3.973s9.081-3.973,8.868-8.868S333.752,197.951,331.7,198.376Z" transform="translate(-287.143 -157.514)" fill="#de0a17"/>
    <path id="Path_59" data-name="Path 59" d="M132.657,310.582c13.976,2.554,35.258-.07,39.017-.992s2.384-2.924,2.384-2.924c.919.649,1.328,1.364.951,2.143-2.058,4.256-21.638,4.965-27.384,4.965s-23.2-.353-23.2-3.475c0-3.084,8.234-4.991,11.307-4.282C129.954,307.671,126.523,309.461,132.657,310.582Z" transform="translate(-124.427 -243.898)" fill="#de0a17"/>
    <path id="Path_60" data-name="Path 60" d="M172.194,334.094s4.948,3.778,29.582,1.6c9.843-.8,13.94-3.246,14.472-5.959a37.148,37.148,0,0,1-10.109,3.618C200.553,334.413,191.348,336.063,172.194,334.094Z" transform="translate(-162.368 -262.851)" fill="#de0a17"/>
    <path id="Path_61" data-name="Path 61" d="M149.488,377.49H145.4c.09,3.433.181,6.448.181,9.582,0,2.388-.09,5.193-.09,8a8.919,8.919,0,0,1-1.281,4.815q1.441.7,2.932,1.315a9.958,9.958,0,0,0,2.259-6.756c-.06-2.27-.06-5.193-.06-7.372C149.337,383.818,149.4,380.654,149.488,377.49Z" transform="translate(-140.138 -300.786)" fill="#de0a17"/>
    <path id="Path_62" data-name="Path 62" d="M260.082,405.067,257.6,412.41c-.447,1.343-.776,2.627-1.075,3.91h-.269a20.447,20.447,0,0,0-1.015-3.91l-.806-2.358c-.6-1.67-1.1-3.433-1.552-5.133l-4.118.507,5.73,14.863,2.955-.3,3.491-9.043c.688-1.76,1.582-3.852,2.418-5.7Z" transform="translate(-223.192 -322.573)" fill="#de0a17"/>
    <path id="Path_63" data-name="Path 63" d="M334.657,404.908a12.147,12.147,0,0,0-6.117,1.762L329.2,409l.239.148a7.748,7.748,0,0,1,4.239-1.76,2.515,2.515,0,0,1,2.657,2.629v1.311c-6.536.987-8.148,3.016-8.148,5.373a3.609,3.609,0,0,0,3.731,3.82,7.1,7.1,0,0,0,4.359-2.059l.267.06a2.207,2.207,0,0,0,2.132,1.93c.428-.234.853-.475,1.272-.722V409.566C339.943,406.432,338.062,404.908,334.657,404.908Zm1.672,11.732a4.587,4.587,0,0,1-2.775,1.4A1.779,1.779,0,0,1,331.7,416.1c0-1.373.924-2.388,4.625-2.925v3.463Z" transform="translate(-286.268 -322.564)" fill="#de0a17"/>
    <path id="Path_64" data-name="Path 64" d="M190,404.919a12.153,12.153,0,0,0-6.119,1.76l.658,2.328.239.15a7.73,7.73,0,0,1,4.239-1.762,2.515,2.515,0,0,1,2.657,2.627v1.313c-6.536.987-8.148,3.016-8.148,5.373a3.608,3.608,0,0,0,3.731,3.82,7.094,7.094,0,0,0,4.357-2.059l.269.06a2.275,2.275,0,0,0,2.536,1.941,4.211,4.211,0,0,0,.866-.1v-10.8C195.285,406.441,193.4,404.919,190,404.919Zm1.672,11.729a4.6,4.6,0,0,1-2.777,1.4,1.78,1.78,0,0,1-1.851-1.941c0-1.374.926-2.388,4.628-2.925Z" transform="translate(-171.369 -322.573)" fill="#de0a17"/>
  </g>
</svg>
