<svg id="linkedin" xmlns="http://www.w3.org/2000/svg" width="53.613" height="53.355" viewBox="0 0 53.613 53.355">
  <path id="Path_70" data-name="Path 70" d="M45.76,0H7.853A7.843,7.843,0,0,0,0,7.816V45.539a7.843,7.843,0,0,0,7.853,7.816H45.76a7.843,7.843,0,0,0,7.853-7.816V7.816A7.843,7.843,0,0,0,45.76,0Zm4.712,45.539a4.706,4.706,0,0,1-4.712,4.689H7.853a4.706,4.706,0,0,1-4.712-4.689V7.816A4.706,4.706,0,0,1,7.853,3.126H45.76a4.706,4.706,0,0,1,4.712,4.689Zm0,0" fill="#fff"/>
  <path id="Path_71" data-name="Path 71" d="M91,232.092h9.424V210H91Zm3.141-18.966h3.141v15.84H94.141Zm0,0" transform="translate(-81.471 -188.116)" fill="#fff"/>
  <path id="Path_72" data-name="Path 72" d="M223.575,210h-.009a9.447,9.447,0,0,0-3.141.532V210H211v22.092h9.424v-11.15a1.571,1.571,0,0,1,3.141,0v11.15h9.424V219.867c0-5.059-4.124-9.862-9.415-9.867Zm6.274,18.966h-3.141v-8.024a4.712,4.712,0,0,0-9.424,0v8.024h-3.141v-15.84h3.141v3.128l2.514-1.879a6.247,6.247,0,0,1,3.769-1.249h.006c3.343,0,6.277,3.153,6.277,6.741Zm0,0" transform="translate(-188.906 -188.116)" fill="#fff"/>
  <path id="Path_73" data-name="Path 73" d="M91,99.379h9.424V90H91Zm3.141-6.253h3.141v3.126H94.141Zm0,0" transform="translate(-81.471 -80.621)" fill="#fff"/>
</svg>
