<svg xmlns="http://www.w3.org/2000/svg" width="166.634" height="166.628" viewBox="0 0 166.634 166.628">
  <g id="meeting" transform="translate(0 -0.008)">
    <g id="Group_2" data-name="Group 2" transform="translate(14.65 24.742)">
      <g id="Group_1" data-name="Group 1">
        <path id="Path_11" data-name="Path 11" d="M59.659,76A14.645,14.645,0,1,0,74.3,90.65,14.661,14.661,0,0,0,59.659,76Z" transform="translate(-45.014 -76.005)" fill="#00c2ff"/>
      </g>
    </g>
    <g id="Group_4" data-name="Group 4" transform="translate(48.822 0.008)">
      <g id="Group_3" data-name="Group 3">
        <path id="Path_12" data-name="Path 12" d="M204.359.008h-39.7a14.943,14.943,0,0,0-14.645,14.97v9.763a14.661,14.661,0,0,0,14.645,14.645h17.831l18.422,18.1a4.881,4.881,0,0,0,8.333-3.451V38.552A14.675,14.675,0,0,0,219,24.742V14.978A14.943,14.943,0,0,0,204.359.008Z" transform="translate(-150.01 -0.008)" fill="#00c2ff"/>
      </g>
    </g>
    <g id="Group_6" data-name="Group 6" transform="translate(0 58.971)">
      <g id="Group_5" data-name="Group 5">
        <path id="Path_13" data-name="Path 13" d="M77.821,276.71,63.175,232.445a9.743,9.743,0,0,0-9.472-7.389H43.94a4.882,4.882,0,1,1,0-9.763H58.585a9.763,9.763,0,1,0,0-19.527H31.7l-3.436-9.244a9.794,9.794,0,0,0-18.206,1.993L.3,232.449a9.754,9.754,0,0,0,9.329,12.116L.152,282.778a4.879,4.879,0,0,0,9.468,2.364l3.957-15.827H54.625l4.25,12.133a9.764,9.764,0,0,0,18.945-4.738Zm-61.8-17.157,3.366-13.788a4.68,4.68,0,0,0,.055-1.182H46.075l5.13,14.97Z" transform="translate(0 -181.178)" fill="#00c2ff"/>
      </g>
    </g>
    <g id="Group_8" data-name="Group 8" transform="translate(122.694 24.742)">
      <g id="Group_7" data-name="Group 7">
        <path id="Path_14" data-name="Path 14" d="M391.636,76A14.645,14.645,0,1,0,406.281,90.65,14.661,14.661,0,0,0,391.636,76Z" transform="translate(-376.991 -76.005)" fill="#00c2ff"/>
      </g>
    </g>
    <g id="Group_10" data-name="Group 10" transform="translate(88.52 58.97)">
      <g id="Group_9" data-name="Group 9">
        <path id="Path_15" data-name="Path 15" d="M340.477,244.564a9.754,9.754,0,0,0,9.329-12.116l-9.763-43.935a9.794,9.794,0,0,0-18.206-1.993l-3.436,9.244H291.516a9.763,9.763,0,1,0,0,19.527h14.645a4.882,4.882,0,1,1,0,9.763H296.4a9.743,9.743,0,0,0-9.472,7.389L272.28,276.708a9.764,9.764,0,0,0,18.945,4.739l4.25-12.133h41.049l3.957,15.827a4.879,4.879,0,0,0,9.468-2.364ZM298.9,259.551l5.13-15h26.636a4.68,4.68,0,0,0,.055,1.182l3.366,13.821Z" transform="translate(-271.988 -181.176)" fill="#00c2ff"/>
      </g>
    </g>
  </g>
</svg>
