<svg xmlns="http://www.w3.org/2000/svg" width="54.355" height="53.355" viewBox="0 0 54.355 53.355">
  <g id="outlook" style="isolation: isolate">
    <path id="Path_74" data-name="Path 74" d="M99.93,85.455V79.2L80,81.138v31.55l19.93,1.938v-6.264h16.306V85.455Zm14.495,1.762v1.834L101.742,95.9,99.93,94.9V87.217ZM98.118,112.679l-16.306-1.586V82.728l16.306-1.586ZM99.93,106.6V96.927l1.812.991,12.683-6.852V106.6Zm0,0" transform="translate(-70.941 -70.231)" fill="#fff"/>
    <path id="Path_75" data-name="Path 75" d="M27.177,0A26.931,26.931,0,0,0,0,26.677,26.931,26.931,0,0,0,27.177,53.355,26.931,26.931,0,0,0,54.355,26.677,26.961,26.961,0,0,0,27.177,0Zm0,51.576a25.136,25.136,0,0,1-25.366-24.9,25.136,25.136,0,0,1,25.366-24.9,25.136,25.136,0,0,1,25.366,24.9A25.164,25.164,0,0,1,27.177,51.576Zm0,0" fill="#fff"/>
    <path id="Path_76" data-name="Path 76" d="M118.341,160c-3.556,0-6.341,3.98-6.341,9.059s2.786,9.059,6.341,9.059,6.341-3.98,6.341-9.059S121.9,160,118.341,160Zm0,16.306c-2.455,0-4.53-3.318-4.53-7.247s2.075-7.247,4.53-7.247,4.53,3.318,4.53,7.247S120.8,176.306,118.341,176.306Zm0,0" transform="translate(-99.317 -142.382)" fill="#fff"/>
  </g>
</svg>
