<svg xmlns="http://www.w3.org/2000/svg" width="319.239" height="319.237" viewBox="0 0 319.239 319.237">
  <g id="Outline" transform="matrix(0.966, -0.259, 0.259, 0.966, -2.449, 66.049)">
    <path id="Path_77" data-name="Path 77" d="M6.26,6.218a4.483,4.483,0,0,0-.912,1.434,4.092,4.092,0,0,0,0,3.3,4.053,4.053,0,0,0,.912,1.434,4.362,4.362,0,1,0,6.169-6.169A4.548,4.548,0,0,0,6.26,6.218Z" transform="translate(10.033 10.075)" fill="#fff"/>
    <path id="Path_78" data-name="Path 78" d="M10.694,5.332a4.053,4.053,0,0,0-1.434.912,4.405,4.405,0,0,0,0,6.169,4.344,4.344,0,0,0,7.429-3.084,4.57,4.57,0,0,0-1.26-3.084,4.418,4.418,0,0,0-4.735-.912Z" transform="translate(20.065 10.049)" fill="#fff"/>
    <path id="Path_79" data-name="Path 79" d="M13.694,5.32a4.483,4.483,0,0,0-1.434.912,4.405,4.405,0,0,0,0,6.169,5.018,5.018,0,0,0,1.434.912,4.344,4.344,0,0,0,1.651.348,4.3,4.3,0,0,0,4.344-4.344,4.57,4.57,0,0,0-1.26-3.084A4.5,4.5,0,0,0,13.694,5.32Z" transform="translate(30.098 10.06)" fill="#fff"/>
    <rect id="Rectangle_54" data-name="Rectangle 54" width="61" height="9" transform="translate(58.657 75.656)" fill="#fff"/>
    <rect id="Rectangle_55" data-name="Rectangle 55" width="61" height="9" transform="translate(58.657 101.656)" fill="#fff"/>
    <rect id="Rectangle_56" data-name="Rectangle 56" width="82" height="9" transform="translate(58.657 127.656)" fill="#fff"/>
    <rect id="Rectangle_57" data-name="Rectangle 57" width="56" height="9" transform="translate(58.657 153.656)" fill="#fff"/>
    <rect id="Rectangle_58" data-name="Rectangle 58" width="35" height="9" transform="translate(58.657 179.656)" fill="#fff"/>
    <rect id="Rectangle_59" data-name="Rectangle 59" width="26" height="8" transform="translate(58.657 206.656)" fill="#fff"/>
    <path id="Path_80" data-name="Path 80" d="M246.021,54.131a16.508,16.508,0,0,0-11.76,4.874L219.213,74.054V15.033A13.033,13.033,0,0,0,206.18,2H15.033A13.033,13.033,0,0,0,2,15.033v234.59a13.033,13.033,0,0,0,13.033,13.033H206.18a13.033,13.033,0,0,0,13.033-13.033V121.094l38.568-38.568a16.63,16.63,0,0,0-11.76-28.394ZM10.689,15.033a4.344,4.344,0,0,1,4.344-4.344H206.18a4.344,4.344,0,0,1,4.344,4.344V28.066H10.689Zm199.836,234.59a4.344,4.344,0,0,1-4.344,4.344H15.033a4.344,4.344,0,0,1-4.344-4.344V36.754H210.524V82.742l-26.066,26.066V95.775L138.471,49.787H36.754V240.934h147.7V155.848l26.066-26.066ZM106.81,186.457l-11.76,35.28,35.28-11.76,12.485-12.485,32.956-32.956v67.71H45.443V58.475h86.885v43.443H175.77V117.5l-56.475,56.475Zm12.485-.2,11.234,11.234-4.892,4.892L108.786,208l5.617-16.851ZM141.016,64.618l28.611,28.611H141.016Zm-4.344,126.731-11.234-11.234L227.9,77.651l11.234,11.234ZM251.639,76.382l-6.36,6.36L234.044,71.508l6.36-6.36A7.945,7.945,0,1,1,251.64,76.384Z" fill="#fff"/>
  </g>
</svg>
